<?xml version="1.0" standalone="no"?>
<!DOCTYPE svg PUBLIC "-//W3C//DTD SVG 20010904//EN"
 "http://www.w3.org/TR/2001/REC-SVG-20010904/DTD/svg10.dtd">
<svg version="1.0" xmlns="http://www.w3.org/2000/svg"
 width="512.000000pt" height="512.000000pt" viewBox="0 0 512.000000 512.000000"
 preserveAspectRatio="xMidYMid meet">

<g transform="translate(0.000000,512.000000) scale(0.100000,-0.100000)"
fill="#000000" stroke="none">
<path d="M1175 4789 c-193 -29 -401 -148 -555 -316 -167 -183 -263 -411 -290
-690 -14 -140 -6 -186 41 -232 39 -39 84 -47 185 -33 211 31 348 -9 463 -135
235 -255 284 -822 155 -1768 -21 -157 -25 -215 -21 -330 6 -165 22 -235 83
-361 68 -144 209 -281 372 -363 l42 -22 -44 61 c-177 240 -256 574 -227 953
41 509 228 874 682 1322 l172 170 -6 245 c-8 330 -34 506 -104 725 -111 346
-310 601 -557 716 -117 54 -269 77 -391 58z"/>
<path d="M3816 4291 l-69 -69 35 -49 c19 -26 47 -69 62 -94 l26 -46 92 -6 c51
-3 94 -5 96 -3 5 6 -44 128 -83 206 -40 81 -72 130 -83 130 -4 0 -38 -31 -76
-69z"/>
<path d="M3336 4223 c-58 -117 -78 -195 -80 -317 l-2 -108 -60 -70 c-93 -110
-427 -434 -679 -658 -302 -269 -408 -372 -523 -505 -310 -360 -452 -727 -452
-1165 1 -615 291 -964 877 -1056 147 -23 484 -23 643 0 339 48 537 168 639
386 56 120 73 207 74 380 1 182 -12 248 -76 380 -32 66 -59 103 -122 166 -44
45 -89 86 -100 92 -34 18 -13 20 75 6 106 -16 389 -18 501 -3 92 13 122 24
158 63 34 36 40 118 12 163 -25 40 -56 56 -157 82 -115 30 -334 107 -352 125
-1 2 15 42 37 89 39 84 128 320 168 442 l20 60 117 12 c288 31 484 114 619
264 51 56 117 162 117 188 0 14 -411 418 -490 482 -119 95 -239 136 -426 146
l-120 6 -17 48 c-26 71 -108 189 -178 253 -59 55 -152 116 -176 116 -7 0 -28
-30 -47 -67z"/>
<path d="M3890 752 c-46 -141 -167 -306 -284 -387 -31 -21 -56 -40 -56 -42 0
-1 138 -3 306 -3 l307 0 -5 118 c-6 134 -22 183 -84 251 -40 45 -101 85 -146
95 -24 5 -28 2 -38 -32z"/>
</g>
</svg>
